<svg xmlns="http://www.w3.org/2000/svg" width="118" height="125" fill="none" viewBox="0 0 118 125">
  <mask id="a" width="46" height="81" x="45" y="0" maskUnits="userSpaceOnUse" style="mask-type:luminance">
    <path fill="#fff" d="M45.82 60.626 71.414 33.18l17.282 19.757L63.1 80.382 45.82 60.626Zm6.356-27.7 8.276 9.462 30.01-32.178L82.186.75l-30.01 32.178Z"/>
  </mask>
  <g mask="url(#a)">
    <path fill="#9E1E4C" stroke="#9E1E4C" stroke-linejoin="bevel" stroke-width="2.653" d="M53.602 60.764 71.29 41.798 80.914 52.8 63.226 71.766l-9.624-11.002Z"/>
  </g>
  <path stroke="#9E1E4C" stroke-linejoin="bevel" stroke-width="2.646" d="M83.76 94.995H7.332v28.66h76.426v-28.66Z"/>
  <path stroke="#9E1E4C" stroke-linejoin="bevel" stroke-width="2.646" d="M88.301 92.716c4.65-2.461 13.84-7.636 18.401-10.223 4.56-2.588 4.488-2.588 4.524 2.099.036 4.686.18 14.058.253 18.889.072 4.831.072 5.121-4.56 7.78-4.632 2.66-13.895 7.69-18.437 10.404-4.541 2.714-4.36 3.112-4.415-1.773-.054-4.885-.344-15.053-.434-20.011-.09-4.958.018-4.704 4.668-7.165Z"/>
  <path stroke="#9E1E4C" stroke-linejoin="bevel" stroke-width="2.646" d="M85.062 80.665H2.122v13.896h82.94V80.665Z"/>
  <path stroke="#9E1E4C" stroke-linejoin="bevel" stroke-width="2.646" d="m85.28 81.534-.326 13.353 31.157-18.13-.977-13.679-29.855 18.456Zm-83.926-.79 31.599-17.883h82.072l-28.66 17.804-85.011.08Zm33.77-10.067 49.504.435"/>
</svg>
